<mxfile host="app.diagrams.net" modified="2021-02-06T10:52:01.928Z" agent="5.0 (Macintosh; Intel Mac OS X 10_15_6) AppleWebKit/537.36 (KHTML, like Gecko) Chrome/86.0.4240.193 Safari/537.36" etag="_sQTXrIAgr_8lqEJou5w" version="14.2.9" type="github">
  <diagram id="rghal88rfLR4sz-LoTqB" name="Page-1">
    <mxGraphModel dx="946" dy="536" grid="1" gridSize="10" guides="1" tooltips="1" connect="1" arrows="1" fold="1" page="1" pageScale="1" pageWidth="827" pageHeight="1169" math="0" shadow="0">
      <root>
        <mxCell id="0" />
        <mxCell id="1" parent="0" />
        <mxCell id="aU9Vmu0hMASsQyxVc6xP-1" value="id列" style="text;html=1;strokeColor=none;fillColor=none;align=center;verticalAlign=middle;whiteSpace=wrap;rounded=0;" vertex="1" parent="1">
          <mxGeometry x="150" y="240" width="70" height="20" as="geometry" />
        </mxCell>
        <mxCell id="aU9Vmu0hMASsQyxVc6xP-2" value="name列" style="text;html=1;strokeColor=none;fillColor=none;align=center;verticalAlign=middle;whiteSpace=wrap;rounded=0;" vertex="1" parent="1">
          <mxGeometry x="150" y="280" width="70" height="20" as="geometry" />
        </mxCell>
        <mxCell id="aU9Vmu0hMASsQyxVc6xP-3" value="1" style="rounded=0;whiteSpace=wrap;html=1;fillColor=#ffffff;gradientColor=#ffffff;" vertex="1" parent="1">
          <mxGeometry x="230" y="230" width="60" height="40" as="geometry" />
        </mxCell>
        <mxCell id="aU9Vmu0hMASsQyxVc6xP-4" value="&lt;span&gt;西施&lt;/span&gt;" style="rounded=0;whiteSpace=wrap;html=1;fillColor=#ffffff;gradientColor=#ffffff;" vertex="1" parent="1">
          <mxGeometry x="230" y="270" width="60" height="40" as="geometry" />
        </mxCell>
        <mxCell id="aU9Vmu0hMASsQyxVc6xP-5" value="5" style="rounded=0;whiteSpace=wrap;html=1;fillColor=#ffffff;gradientColor=#ffffff;" vertex="1" parent="1">
          <mxGeometry x="290" y="230" width="60" height="40" as="geometry" />
        </mxCell>
        <mxCell id="aU9Vmu0hMASsQyxVc6xP-6" value="&lt;span&gt;王昭君&lt;/span&gt;" style="rounded=0;whiteSpace=wrap;html=1;fillColor=#ffffff;gradientColor=#ffffff;" vertex="1" parent="1">
          <mxGeometry x="290" y="270" width="60" height="40" as="geometry" />
        </mxCell>
        <mxCell id="aU9Vmu0hMASsQyxVc6xP-7" value="8" style="rounded=0;whiteSpace=wrap;html=1;gradientDirection=north;fillColor=#ffe6cc;" vertex="1" parent="1">
          <mxGeometry x="350" y="230" width="60" height="40" as="geometry" />
        </mxCell>
        <mxCell id="aU9Vmu0hMASsQyxVc6xP-8" value="&lt;span&gt;貂蝉&lt;/span&gt;" style="rounded=0;whiteSpace=wrap;html=1;fillColor=#ffe6cc;" vertex="1" parent="1">
          <mxGeometry x="350" y="270" width="60" height="40" as="geometry" />
        </mxCell>
        <mxCell id="aU9Vmu0hMASsQyxVc6xP-9" value="10" style="rounded=0;whiteSpace=wrap;html=1;fillColor=#ffffff;gradientColor=#ffffff;" vertex="1" parent="1">
          <mxGeometry x="410" y="230" width="60" height="40" as="geometry" />
        </mxCell>
        <mxCell id="aU9Vmu0hMASsQyxVc6xP-10" value="&lt;span&gt;杨玉环&lt;/span&gt;" style="rounded=0;whiteSpace=wrap;html=1;fillColor=#ffffff;gradientColor=#ffffff;" vertex="1" parent="1">
          <mxGeometry x="410" y="270" width="60" height="40" as="geometry" />
        </mxCell>
        <mxCell id="aU9Vmu0hMASsQyxVc6xP-11" value="12" style="rounded=0;whiteSpace=wrap;html=1;fillColor=#ffffff;gradientColor=#ffffff;" vertex="1" parent="1">
          <mxGeometry x="470" y="230" width="60" height="40" as="geometry" />
        </mxCell>
        <mxCell id="aU9Vmu0hMASsQyxVc6xP-12" value="&lt;span&gt;陈圆圆&lt;/span&gt;" style="rounded=0;whiteSpace=wrap;html=1;fillColor=#ffffff;gradientColor=#ffffff;" vertex="1" parent="1">
          <mxGeometry x="470" y="270" width="60" height="40" as="geometry" />
        </mxCell>
        <mxCell id="aU9Vmu0hMASsQyxVc6xP-13" value="对id为8的记录加Next-key Lock" style="whiteSpace=wrap;html=1;shape=mxgraph.basic.rectCallout;dx=30;dy=15;boundedLbl=1;rounded=0;strokeColor=#000000;fillColor=none;gradientColor=none;" vertex="1" parent="1">
          <mxGeometry x="345" y="120" width="190" height="60" as="geometry" />
        </mxCell>
        <mxCell id="aU9Vmu0hMASsQyxVc6xP-14" value="" style="endArrow=none;html=1;strokeColor=#FF0000;" edge="1" parent="1">
          <mxGeometry width="50" height="50" relative="1" as="geometry">
            <mxPoint x="350" y="230" as="sourcePoint" />
            <mxPoint x="400" y="180" as="targetPoint" />
          </mxGeometry>
        </mxCell>
        <mxCell id="aU9Vmu0hMASsQyxVc6xP-15" value="" style="endArrow=none;html=1;strokeColor=#FF0000;" edge="1" parent="1">
          <mxGeometry width="50" height="50" relative="1" as="geometry">
            <mxPoint x="350" y="230" as="sourcePoint" />
            <mxPoint x="300" y="180" as="targetPoint" />
          </mxGeometry>
        </mxCell>
      </root>
    </mxGraphModel>
  </diagram>
</mxfile>
